solid SelectedFaces
  facet normal 0 0 1
    outer loop
      vertex -170.9373016357422 -109.02088928222656 46
      vertex -175.68873596191406 -105.571044921875 46
      vertex -173.4247283935547 -107.44982147216797 46
    endloop
  endfacet
  facet normal 0 0 1
    outer loop
      vertex -168.2680206298828 -110.25800323486328 46
      vertex -177.69151306152344 -103.41594696044922 46
      vertex -175.68873596191406 -105.571044921875 46
    endloop
  endfacet
  facet normal 0 0 1
    outer loop
      vertex -168.2680206298828 -110.25800323486328 46
      vertex -175.68873596191406 -105.571044921875 46
      vertex -170.9373016357422 -109.02088928222656 46
    endloop
  endfacet
  facet normal 0 0 1
    outer loop
      vertex -181.82293701171875 -95.67216491699219 46
      vertex -180.78443908691406 -98.42481994628906 46
      vertex -179.39959716796875 -101.0205307006836 46
    endloop
  endfacet
  facet normal 0 0 1
    outer loop
      vertex -181.82293701171875 -95.67216491699219 46
      vertex -179.39959716796875 -101.0205307006836 46
      vertex -177.69151306152344 -103.41594696044922 46
    endloop
  endfacet
  facet normal 0 0 1
    outer loop
      vertex -181.82293701171875 -95.67216491699219 46
      vertex -177.69151306152344 -103.41594696044922 46
      vertex -168.2680206298828 -110.25800323486328 46
    endloop
  endfacet
  facet normal 0 0 1
    outer loop
      vertex -162.5645294189453 -111.65362548828125 46
      vertex -168.2680206298828 -110.25800323486328 46
      vertex -165.46145629882812 -111.14049530029297 46
    endloop
  endfacet
  facet normal 0 0 1
    outer loop
      vertex -182.71726989746094 -86.94090270996094 46
      vertex -182.7974853515625 -89.88184356689453 46
      vertex -182.49769592285156 -92.80855560302734 46
    endloop
  endfacet
  facet normal 0 0 1
    outer loop
      vertex -181.4285430908203 -81.21231079101562 46
      vertex -182.25840759277344 -84.03487396240234 46
      vertex -182.71726989746094 -86.94090270996094 46
    endloop
  endfacet
  facet normal 0 0 1
    outer loop
      vertex -181.4285430908203 -81.21231079101562 46
      vertex -182.49769592285156 -92.80855560302734 46
      vertex -181.82293701171875 -95.67216491699219 46
    endloop
  endfacet
  facet normal 0 0 1
    outer loop
      vertex -181.4285430908203 -81.21231079101562 46
      vertex -182.71726989746094 -86.94090270996094 46
      vertex -182.49769592285156 -92.80855560302734 46
    endloop
  endfacet
  facet normal 0 0 1
    outer loop
      vertex -178.71728515625 -76.00398254394531 46
      vertex -180.24156188964844 -78.52035522460938 46
      vertex -181.4285430908203 -81.21231079101562 46
    endloop
  endfacet
  facet normal 0 0 1
    outer loop
      vertex -178.71728515625 -76.00398254394531 46
      vertex -168.2680206298828 -110.25800323486328 46
      vertex -162.5645294189453 -111.65362548828125 46
    endloop
  endfacet
  facet normal 0 0 1
    outer loop
      vertex -178.71728515625 -76.00398254394531 46
      vertex -181.82293701171875 -95.67216491699219 46
      vertex -168.2680206298828 -110.25800323486328 46
    endloop
  endfacet
  facet normal 0 0 1
    outer loop
      vertex -178.71728515625 -76.00398254394531 46
      vertex -181.4285430908203 -81.21231079101562 46
      vertex -181.82293701171875 -95.67216491699219 46
    endloop
  endfacet
  facet normal 0 0 1
    outer loop
      vertex -143.8061981201172 -104.97471618652344 46
      vertex -148.42530822753906 -108.5998306274414 46
      vertex -145.99838256835938 -106.93684387207031 46
    endloop
  endfacet
  facet normal 0 0 1
    outer loop
      vertex -174.763916015625 -71.66250610351562 46
      vertex -176.8811798095703 -73.70523071289062 46
      vertex -178.71728515625 -76.00398254394531 46
    endloop
  endfacet
  facet normal 0 0 1
    outer loop
      vertex -174.763916015625 -71.66250610351562 46
      vertex -178.71728515625 -76.00398254394531 46
      vertex -162.5645294189453 -111.65362548828125 46
    endloop
  endfacet
  facet normal 0 0 1
    outer loop
      vertex -141.8854217529297 -102.7462387084961 46
      vertex -148.42530822753906 -108.5998306274414 46
      vertex -143.8061981201172 -104.97471618652344 46
    endloop
  endfacet
  facet normal 0 0 1
    outer loop
      vertex -141.8854217529297 -102.7462387084961 46
      vertex -151.04647827148438 -109.9358901977539 46
      vertex -148.42530822753906 -108.5998306274414 46
    endloop
  endfacet
  facet normal 0 0 1
    outer loop
      vertex -172.40086364746094 -69.90992736816406 46
      vertex -162.5645294189453 -111.65362548828125 46
      vertex -159.62559509277344 -111.788818359375 46
    endloop
  endfacet
  facet normal 0 0 1
    outer loop
      vertex -172.40086364746094 -69.90992736816406 46
      vertex -159.62559509277344 -111.788818359375 46
      vertex -156.69378662109375 -111.5438232421875 46
    endloop
  endfacet
  facet normal 0 0 1
    outer loop
      vertex -172.40086364746094 -69.90992736816406 46
      vertex -156.69378662109375 -111.5438232421875 46
      vertex -153.8180694580078 -110.92272186279297 46
    endloop
  endfacet
  facet normal 0 0 1
    outer loop
      vertex -172.40086364746094 -69.90992736816406 46
      vertex -174.763916015625 -71.66250610351562 46
      vertex -162.5645294189453 -111.65362548828125 46
    endloop
  endfacet
  facet normal 0 0 1
    outer loop
      vertex -164.46336364746094 -66.70022583007812 46
      vertex -172.40086364746094 -69.90992736816406 46
      vertex -153.8180694580078 -110.92272186279297 46
    endloop
  endfacet
  facet normal 0 0 1
    outer loop
      vertex -164.46336364746094 -66.70022583007812 46
      vertex -167.23745727539062 -67.43266296386719 46
      vertex -169.8973846435547 -68.50826263427734 46
    endloop
  endfacet
  facet normal 0 0 1
    outer loop
      vertex -164.46336364746094 -66.70022583007812 46
      vertex -169.8973846435547 -68.50826263427734 46
      vertex -172.40086364746094 -69.90992736816406 46
    endloop
  endfacet
  facet normal 0 0 1
    outer loop
      vertex -158.75006103515625 -66.30574798583984 46
      vertex -161.61917114257812 -66.32258605957031 46
      vertex -164.46336364746094 -66.70022583007812 46
    endloop
  endfacet
  facet normal 0 0 1
    outer loop
      vertex -137.46995544433594 -86.16720581054688 46
      vertex -141.8854217529297 -102.7462387084961 46
      vertex -140.2681121826172 -100.28862762451172 46
    endloop
  endfacet
  facet normal 0 0 1
    outer loop
      vertex -137.46995544433594 -86.16720581054688 46
      vertex -140.2681121826172 -100.28862762451172 46
      vertex -138.98129272460938 -97.64293670654297 46
    endloop
  endfacet
  facet normal 0 0 1
    outer loop
      vertex -137.46995544433594 -86.16720581054688 46
      vertex -138.98129272460938 -97.64293670654297 46
      vertex -138.0464630126953 -94.85337829589844 46
    endloop
  endfacet
  facet normal 0 0 1
    outer loop
      vertex -137.46995544433594 -86.16720581054688 46
      vertex -138.0464630126953 -94.85337829589844 46
      vertex -137.479248046875 -91.96654510498047 46
    endloop
  endfacet
  facet normal 0 0 1
    outer loop
      vertex -137.46995544433594 -86.16720581054688 46
      vertex -137.479248046875 -91.96654510498047 46
      vertex -137.28912353515625 -89.0306625366211 46
    endloop
  endfacet
  facet normal 0 0 1
    outer loop
      vertex -155.901611328125 -66.64997100830078 46
      vertex -158.75006103515625 -66.30574798583984 46
      vertex -164.46336364746094 -66.70022583007812 46
    endloop
  endfacet
  facet normal 0 0 1
    outer loop
      vertex -155.901611328125 -66.64997100830078 46
      vertex -164.46336364746094 -66.70022583007812 46
      vertex -153.8180694580078 -110.92272186279297 46
    endloop
  endfacet
  facet normal 0 0 1
    outer loop
      vertex -155.901611328125 -66.64997100830078 46
      vertex -153.8180694580078 -110.92272186279297 46
      vertex -151.04647827148438 -109.9358901977539 46
    endloop
  endfacet
  facet normal 0 0 1
    outer loop
      vertex -150.44674682617188 -68.39408874511719 46
      vertex -153.11911010742188 -67.34978485107422 46
      vertex -155.901611328125 -66.64997100830078 46
    endloop
  endfacet
  facet normal 0 0 1
    outer loop
      vertex -140.12527465820312 -78.0274658203125 46
      vertex -137.46995544433594 -86.16720581054688 46
      vertex -138.0095672607422 -83.3492431640625 46
    endloop
  endfacet
  facet normal 0 0 1
    outer loop
      vertex -140.12527465820312 -78.0274658203125 46
      vertex -138.0095672607422 -83.3492431640625 46
      vertex -138.89938354492188 -80.62155151367188 46
    endloop
  endfacet
  facet normal 0 0 1
    outer loop
      vertex -147.92698669433594 -69.76626586914062 46
      vertex -155.901611328125 -66.64997100830078 46
      vertex -151.04647827148438 -109.9358901977539 46
    endloop
  endfacet
  facet normal 0 0 1
    outer loop
      vertex -147.92698669433594 -69.76626586914062 46
      vertex -150.44674682617188 -68.39408874511719 46
      vertex -155.901611328125 -66.64997100830078 46
    endloop
  endfacet
  facet normal 0 0 1
    outer loop
      vertex -147.92698669433594 -69.76626586914062 46
      vertex -151.04647827148438 -109.9358901977539 46
      vertex -141.8854217529297 -102.7462387084961 46
    endloop
  endfacet
  facet normal 0 0 1
    outer loop
      vertex -143.50234985351562 -73.40221405029297 46
      vertex -140.12527465820312 -78.0274658203125 46
      vertex -141.6677703857422 -75.60820770263672 46
    endloop
  endfacet
  facet normal 0 0 1
    outer loop
      vertex -143.50234985351562 -73.40221405029297 46
      vertex -145.599853515625 -71.44453430175781 46
      vertex -147.92698669433594 -69.76626586914062 46
    endloop
  endfacet
  facet normal 0 0 1
    outer loop
      vertex -143.50234985351562 -73.40221405029297 46
      vertex -137.46995544433594 -86.16720581054688 46
      vertex -140.12527465820312 -78.0274658203125 46
    endloop
  endfacet
  facet normal 0 0 1
    outer loop
      vertex -143.50234985351562 -73.40221405029297 46
      vertex -141.8854217529297 -102.7462387084961 46
      vertex -137.46995544433594 -86.16720581054688 46
    endloop
  endfacet
  facet normal 0 0 1
    outer loop
      vertex -143.50234985351562 -73.40221405029297 46
      vertex -147.92698669433594 -69.76626586914062 46
      vertex -141.8854217529297 -102.7462387084961 46
    endloop
  endfacet
endsolid SelectedFaces
