solid SelectedFaces
  facet normal 0 0 1
    outer loop
      vertex -52.927669525146484 268.2343444824219 46
      vertex -48.66088104248047 264.2004699707031 46
      vertex -50.663658142089844 266.3555603027344 46
    endloop
  endfacet
  facet normal 0 0 1
    outer loop
      vertex -45.567955017089844 259.2093200683594 46
      vertex -46.95280456542969 261.8050537109375 46
      vertex -48.66088104248047 264.2004699707031 46
    endloop
  endfacet
  facet normal 0 0 1
    outer loop
      vertex -45.567955017089844 259.2093200683594 46
      vertex -48.66088104248047 264.2004699707031 46
      vertex -52.927669525146484 268.2343444824219 46
    endloop
  endfacet
  facet normal 0 0 1
    outer loop
      vertex -58.08438491821289 271.0425109863281 46
      vertex -52.927669525146484 268.2343444824219 46
      vertex -55.415096282958984 269.8053894042969 46
    endloop
  endfacet
  facet normal 0 0 1
    outer loop
      vertex -60.89094161987305 271.9250183105469 46
      vertex -45.567955017089844 259.2093200683594 46
      vertex -52.927669525146484 268.2343444824219 46
    endloop
  endfacet
  facet normal 0 0 1
    outer loop
      vertex -60.89094161987305 271.9250183105469 46
      vertex -52.927669525146484 268.2343444824219 46
      vertex -58.08438491821289 271.0425109863281 46
    endloop
  endfacet
  facet normal 0 0 1
    outer loop
      vertex -43.85470199584961 253.59307861328125 46
      vertex -44.52946853637695 256.4566650390625 46
      vertex -45.567955017089844 259.2093200683594 46
    endloop
  endfacet
  facet normal 0 0 1
    outer loop
      vertex -63.78787612915039 272.4381408691406 46
      vertex -45.567955017089844 259.2093200683594 46
      vertex -60.89094161987305 271.9250183105469 46
    endloop
  endfacet
  facet normal 0 0 1
    outer loop
      vertex -43.55491638183594 250.66635131835938 46
      vertex -43.85470199584961 253.59307861328125 46
      vertex -45.567955017089844 259.2093200683594 46
    endloop
  endfacet
  facet normal 0 0 1
    outer loop
      vertex -66.72679901123047 272.5733337402344 46
      vertex -45.567955017089844 259.2093200683594 46
      vertex -63.78787612915039 272.4381408691406 46
    endloop
  endfacet
  facet normal 0 0 1
    outer loop
      vertex -44.923851013183594 241.996826171875 46
      vertex -44.093994140625 244.81939697265625 46
      vertex -43.635128021240234 247.7254180908203 46
    endloop
  endfacet
  facet normal 0 0 1
    outer loop
      vertex -44.923851013183594 241.996826171875 46
      vertex -43.635128021240234 247.7254180908203 46
      vertex -43.55491638183594 250.66635131835938 46
    endloop
  endfacet
  facet normal 0 0 1
    outer loop
      vertex -75.3059310913086 270.72039794921875 46
      vertex -66.72679901123047 272.5733337402344 46
      vertex -69.65861511230469 272.3283386230469 46
    endloop
  endfacet
  facet normal 0 0 1
    outer loop
      vertex -75.3059310913086 270.72039794921875 46
      vertex -69.65861511230469 272.3283386230469 46
      vertex -72.53433227539062 271.7072448730469 46
    endloop
  endfacet
  facet normal 0 0 1
    outer loop
      vertex -75.3059310913086 270.72039794921875 46
      vertex -43.55491638183594 250.66635131835938 46
      vertex -45.567955017089844 259.2093200683594 46
    endloop
  endfacet
  facet normal 0 0 1
    outer loop
      vertex -75.3059310913086 270.72039794921875 46
      vertex -45.567955017089844 259.2093200683594 46
      vertex -66.72679901123047 272.5733337402344 46
    endloop
  endfacet
  facet normal 0 0 1
    outer loop
      vertex -47.635108947753906 236.7884979248047 46
      vertex -46.11083221435547 239.30487060546875 46
      vertex -44.923851013183594 241.996826171875 46
    endloop
  endfacet
  facet normal 0 0 1
    outer loop
      vertex -47.635108947753906 236.7884979248047 46
      vertex -44.923851013183594 241.996826171875 46
      vertex -43.55491638183594 250.66635131835938 46
    endloop
  endfacet
  facet normal 0 0 1
    outer loop
      vertex -80.3540267944336 267.7213439941406 46
      vertex -75.3059310913086 270.72039794921875 46
      vertex -77.92708587646484 269.38433837890625 46
    endloop
  endfacet
  facet normal 0 0 1
    outer loop
      vertex -51.58848190307617 232.447021484375 46
      vertex -49.47121810913086 234.48974609375 46
      vertex -47.635108947753906 236.7884979248047 46
    endloop
  endfacet
  facet normal 0 0 1
    outer loop
      vertex -53.9515380859375 230.69444274902344 46
      vertex -51.58848190307617 232.447021484375 46
      vertex -47.635108947753906 236.7884979248047 46
    endloop
  endfacet
  facet normal 0 0 1
    outer loop
      vertex -86.08428955078125 261.0731506347656 46
      vertex -80.3540267944336 267.7213439941406 46
      vertex -82.54619598388672 265.7592468261719 46
    endloop
  endfacet
  facet normal 0 0 1
    outer loop
      vertex -86.08428955078125 261.0731506347656 46
      vertex -82.54619598388672 265.7592468261719 46
      vertex -84.46697998046875 263.53076171875 46
    endloop
  endfacet
  facet normal 0 0 1
    outer loop
      vertex -87.37110900878906 258.4274597167969 46
      vertex -75.3059310913086 270.72039794921875 46
      vertex -80.3540267944336 267.7213439941406 46
    endloop
  endfacet
  facet normal 0 0 1
    outer loop
      vertex -87.37110900878906 258.4274597167969 46
      vertex -80.3540267944336 267.7213439941406 46
      vertex -86.08428955078125 261.0731506347656 46
    endloop
  endfacet
  facet normal 0 0 1
    outer loop
      vertex -88.3059310913086 255.6378936767578 46
      vertex -75.3059310913086 270.72039794921875 46
      vertex -87.37110900878906 258.4274597167969 46
    endloop
  endfacet
  facet normal 0 0 1
    outer loop
      vertex -64.73323822021484 227.1071014404297 46
      vertex -61.889034271240234 227.4847412109375 46
      vertex -59.11493682861328 228.21717834472656 46
    endloop
  endfacet
  facet normal 0 0 1
    outer loop
      vertex -64.73323822021484 227.1071014404297 46
      vertex -59.11493682861328 228.21717834472656 46
      vertex -56.45501708984375 229.2927703857422 46
    endloop
  endfacet
  facet normal 0 0 1
    outer loop
      vertex -70.4507827758789 227.43447875976562 46
      vertex -67.60234832763672 227.0902557373047 46
      vertex -64.73323822021484 227.1071014404297 46
    endloop
  endfacet
  facet normal 0 0 1
    outer loop
      vertex -87.45301055908203 241.40606689453125 46
      vertex -89.06327819824219 249.81517028808594 46
      vertex -88.8824462890625 246.95172119140625 46
    endloop
  endfacet
  facet normal 0 0 1
    outer loop
      vertex -87.45301055908203 241.40606689453125 46
      vertex -75.3059310913086 270.72039794921875 46
      vertex -88.3059310913086 255.6378936767578 46
    endloop
  endfacet
  facet normal 0 0 1
    outer loop
      vertex -87.45301055908203 241.40606689453125 46
      vertex -88.8824462890625 246.95172119140625 46
      vertex -88.34283447265625 244.13375854492188 46
    endloop
  endfacet
  facet normal 0 0 1
    outer loop
      vertex -87.45301055908203 241.40606689453125 46
      vertex -88.3059310913086 255.6378936767578 46
      vertex -88.8731460571289 252.7510528564453 46
    endloop
  endfacet
  facet normal 0 0 1
    outer loop
      vertex -87.45301055908203 241.40606689453125 46
      vertex -88.8731460571289 252.7510528564453 46
      vertex -89.06327819824219 249.81517028808594 46
    endloop
  endfacet
  facet normal 0 0 1
    outer loop
      vertex -87.45301055908203 241.40606689453125 46
      vertex -43.55491638183594 250.66635131835938 46
      vertex -75.3059310913086 270.72039794921875 46
    endloop
  endfacet
  facet normal 0 0 1
    outer loop
      vertex -75.90565490722656 229.17860412597656 46
      vertex -70.4507827758789 227.43447875976562 46
      vertex -64.73323822021484 227.1071014404297 46
    endloop
  endfacet
  facet normal 0 0 1
    outer loop
      vertex -75.90565490722656 229.17860412597656 46
      vertex -73.23329162597656 228.13430786132812 46
      vertex -70.4507827758789 227.43447875976562 46
    endloop
  endfacet
  facet normal 0 0 1
    outer loop
      vertex -75.90565490722656 229.17860412597656 46
      vertex -64.73323822021484 227.1071014404297 46
      vertex -56.45501708984375 229.2927703857422 46
    endloop
  endfacet
  facet normal 0 0 1
    outer loop
      vertex -75.90565490722656 229.17860412597656 46
      vertex -56.45501708984375 229.2927703857422 46
      vertex -53.9515380859375 230.69444274902344 46
    endloop
  endfacet
  facet normal 0 0 1
    outer loop
      vertex -75.90565490722656 229.17860412597656 46
      vertex -53.9515380859375 230.69444274902344 46
      vertex -47.635108947753906 236.7884979248047 46
    endloop
  endfacet
  facet normal 0 0 1
    outer loop
      vertex -86.22711944580078 238.81198120117188 46
      vertex -43.55491638183594 250.66635131835938 46
      vertex -87.45301055908203 241.40606689453125 46
    endloop
  endfacet
  facet normal 0 0 1
    outer loop
      vertex -86.22711944580078 238.81198120117188 46
      vertex -75.90565490722656 229.17860412597656 46
      vertex -47.635108947753906 236.7884979248047 46
    endloop
  endfacet
  facet normal 0 0 1
    outer loop
      vertex -86.22711944580078 238.81198120117188 46
      vertex -47.635108947753906 236.7884979248047 46
      vertex -43.55491638183594 250.66635131835938 46
    endloop
  endfacet
  facet normal 0 0 1
    outer loop
      vertex -82.85005187988281 234.1867218017578 46
      vertex -86.22711944580078 238.81198120117188 46
      vertex -84.68463134765625 236.39273071289062 46
    endloop
  endfacet
  facet normal 0 0 1
    outer loop
      vertex -82.85005187988281 234.1867218017578 46
      vertex -80.7525405883789 232.2290496826172 46
      vertex -78.4254150390625 230.55078125 46
    endloop
  endfacet
  facet normal 0 0 1
    outer loop
      vertex -82.85005187988281 234.1867218017578 46
      vertex -78.4254150390625 230.55078125 46
      vertex -75.90565490722656 229.17860412597656 46
    endloop
  endfacet
  facet normal 0 0 1
    outer loop
      vertex -82.85005187988281 234.1867218017578 46
      vertex -75.90565490722656 229.17860412597656 46
      vertex -86.22711944580078 238.81198120117188 46
    endloop
  endfacet
  facet normal 0 0 1
    outer loop
      vertex -173.4247283935547 212.55018615722656 46
      vertex -177.69151306152344 216.58404541015625 46
      vertex -175.68873596191406 214.428955078125 46
    endloop
  endfacet
  facet normal 0 0 1
    outer loop
      vertex -179.39959716796875 218.97946166992188 46
      vertex -177.69151306152344 216.58404541015625 46
      vertex -173.4247283935547 212.55018615722656 46
    endloop
  endfacet
  facet normal 0 0 1
    outer loop
      vertex -181.82293701171875 224.3278350830078 46
      vertex -180.78443908691406 221.57518005371094 46
      vertex -179.39959716796875 218.97946166992188 46
    endloop
  endfacet
  facet normal 0 0 1
    outer loop
      vertex -162.5645294189453 208.34637451171875 46
      vertex -170.9373016357422 210.97911071777344 46
      vertex -168.2680206298828 209.74200439453125 46
    endloop
  endfacet
  facet normal 0 0 1
    outer loop
      vertex -162.5645294189453 208.34637451171875 46
      vertex -168.2680206298828 209.74200439453125 46
      vertex -165.46145629882812 208.8594970703125 46
    endloop
  endfacet
  facet normal 0 0 1
    outer loop
      vertex -182.7974853515625 230.1181640625 46
      vertex -182.49769592285156 227.19143676757812 46
      vertex -181.82293701171875 224.3278350830078 46
    endloop
  endfacet
  facet normal 0 0 1
    outer loop
      vertex -182.7974853515625 230.1181640625 46
      vertex -173.4247283935547 212.55018615722656 46
      vertex -170.9373016357422 210.97911071777344 46
    endloop
  endfacet
  facet normal 0 0 1
    outer loop
      vertex -182.7974853515625 230.1181640625 46
      vertex -181.82293701171875 224.3278350830078 46
      vertex -179.39959716796875 218.97946166992188 46
    endloop
  endfacet
  facet normal 0 0 1
    outer loop
      vertex -182.7974853515625 230.1181640625 46
      vertex -179.39959716796875 218.97946166992188 46
      vertex -173.4247283935547 212.55018615722656 46
    endloop
  endfacet
  facet normal 0 0 1
    outer loop
      vertex -182.7974853515625 230.1181640625 46
      vertex -170.9373016357422 210.97911071777344 46
      vertex -162.5645294189453 208.34637451171875 46
    endloop
  endfacet
  facet normal 0 0 1
    outer loop
      vertex -153.8180694580078 209.07728576660156 46
      vertex -159.62559509277344 208.211181640625 46
      vertex -156.69378662109375 208.4561767578125 46
    endloop
  endfacet
  facet normal 0 0 1
    outer loop
      vertex -181.4285430908203 238.78768920898438 46
      vertex -182.25840759277344 235.96511840820312 46
      vertex -182.71726989746094 233.05909729003906 46
    endloop
  endfacet
  facet normal 0 0 1
    outer loop
      vertex -181.4285430908203 238.78768920898438 46
      vertex -182.71726989746094 233.05909729003906 46
      vertex -182.7974853515625 230.1181640625 46
    endloop
  endfacet
  facet normal 0 0 1
    outer loop
      vertex -151.04647827148438 210.06410217285156 46
      vertex -159.62559509277344 208.211181640625 46
      vertex -153.8180694580078 209.07728576660156 46
    endloop
  endfacet
  facet normal 0 0 1
    outer loop
      vertex -180.24156188964844 241.47964477539062 46
      vertex -162.5645294189453 208.34637451171875 46
      vertex -159.62559509277344 208.211181640625 46
    endloop
  endfacet
  facet normal 0 0 1
    outer loop
      vertex -180.24156188964844 241.47964477539062 46
      vertex -182.7974853515625 230.1181640625 46
      vertex -162.5645294189453 208.34637451171875 46
    endloop
  endfacet
  facet normal 0 0 1
    outer loop
      vertex -180.24156188964844 241.47964477539062 46
      vertex -181.4285430908203 238.78768920898438 46
      vertex -182.7974853515625 230.1181640625 46
    endloop
  endfacet
  facet normal 0 0 1
    outer loop
      vertex -176.8811798095703 246.29476928710938 46
      vertex -178.71728515625 243.9960174560547 46
      vertex -180.24156188964844 241.47964477539062 46
    endloop
  endfacet
  facet normal 0 0 1
    outer loop
      vertex -143.8061981201172 215.02528381347656 46
      vertex -151.04647827148438 210.06410217285156 46
      vertex -148.42530822753906 211.40017700195312 46
    endloop
  endfacet
  facet normal 0 0 1
    outer loop
      vertex -143.8061981201172 215.02528381347656 46
      vertex -148.42530822753906 211.40017700195312 46
      vertex -145.99838256835938 213.0631561279297 46
    endloop
  endfacet
  facet normal 0 0 1
    outer loop
      vertex -141.8854217529297 217.25376892089844 46
      vertex -151.04647827148438 210.06410217285156 46
      vertex -143.8061981201172 215.02528381347656 46
    endloop
  endfacet
  facet normal 0 0 1
    outer loop
      vertex -172.40086364746094 250.09007263183594 46
      vertex -174.763916015625 248.33749389648438 46
      vertex -176.8811798095703 246.29476928710938 46
    endloop
  endfacet
  facet normal 0 0 1
    outer loop
      vertex -138.98129272460938 222.3570556640625 46
      vertex -151.04647827148438 210.06410217285156 46
      vertex -141.8854217529297 217.25376892089844 46
    endloop
  endfacet
  facet normal 0 0 1
    outer loop
      vertex -138.98129272460938 222.3570556640625 46
      vertex -141.8854217529297 217.25376892089844 46
      vertex -140.2681121826172 219.7113800048828 46
    endloop
  endfacet
  facet normal 0 0 1
    outer loop
      vertex -167.23745727539062 252.5673370361328 46
      vertex -169.8973846435547 251.4917449951172 46
      vertex -172.40086364746094 250.09007263183594 46
    endloop
  endfacet
  facet normal 0 0 1
    outer loop
      vertex -167.23745727539062 252.5673370361328 46
      vertex -172.40086364746094 250.09007263183594 46
      vertex -176.8811798095703 246.29476928710938 46
    endloop
  endfacet
  facet normal 0 0 1
    outer loop
      vertex -167.23745727539062 252.5673370361328 46
      vertex -176.8811798095703 246.29476928710938 46
      vertex -180.24156188964844 241.47964477539062 46
    endloop
  endfacet
  facet normal 0 0 1
    outer loop
      vertex -137.479248046875 228.03346252441406 46
      vertex -138.98129272460938 222.3570556640625 46
      vertex -138.0464630126953 225.14662170410156 46
    endloop
  endfacet
  facet normal 0 0 1
    outer loop
      vertex -161.61917114257812 253.6774139404297 46
      vertex -167.23745727539062 252.5673370361328 46
      vertex -180.24156188964844 241.47964477539062 46
    endloop
  endfacet
  facet normal 0 0 1
    outer loop
      vertex -161.61917114257812 253.6774139404297 46
      vertex -164.46336364746094 253.29977416992188 46
      vertex -167.23745727539062 252.5673370361328 46
    endloop
  endfacet
  facet normal 0 0 1
    outer loop
      vertex -161.61917114257812 253.6774139404297 46
      vertex -180.24156188964844 241.47964477539062 46
      vertex -159.62559509277344 208.211181640625 46
    endloop
  endfacet
  facet normal 0 0 1
    outer loop
      vertex -161.61917114257812 253.6774139404297 46
      vertex -159.62559509277344 208.211181640625 46
      vertex -151.04647827148438 210.06410217285156 46
    endloop
  endfacet
  facet normal 0 0 1
    outer loop
      vertex -137.46995544433594 233.83279418945312 46
      vertex -137.479248046875 228.03346252441406 46
      vertex -137.28912353515625 230.96934509277344 46
    endloop
  endfacet
  facet normal 0 0 1
    outer loop
      vertex -155.901611328125 253.35003662109375 46
      vertex -158.75006103515625 253.6942596435547 46
      vertex -161.61917114257812 253.6774139404297 46
    endloop
  endfacet
  facet normal 0 0 1
    outer loop
      vertex -138.0095672607422 236.6507568359375 46
      vertex -151.04647827148438 210.06410217285156 46
      vertex -138.98129272460938 222.3570556640625 46
    endloop
  endfacet
  facet normal 0 0 1
    outer loop
      vertex -138.0095672607422 236.6507568359375 46
      vertex -138.98129272460938 222.3570556640625 46
      vertex -137.479248046875 228.03346252441406 46
    endloop
  endfacet
  facet normal 0 0 1
    outer loop
      vertex -138.0095672607422 236.6507568359375 46
      vertex -137.479248046875 228.03346252441406 46
      vertex -137.46995544433594 233.83279418945312 46
    endloop
  endfacet
  facet normal 0 0 1
    outer loop
      vertex -140.12527465820312 241.9725341796875 46
      vertex -138.0095672607422 236.6507568359375 46
      vertex -138.89938354492188 239.37844848632812 46
    endloop
  endfacet
  facet normal 0 0 1
    outer loop
      vertex -147.92698669433594 250.23373413085938 46
      vertex -150.44674682617188 251.6059112548828 46
      vertex -153.11911010742188 252.65020751953125 46
    endloop
  endfacet
  facet normal 0 0 1
    outer loop
      vertex -147.92698669433594 250.23373413085938 46
      vertex -153.11911010742188 252.65020751953125 46
      vertex -155.901611328125 253.35003662109375 46
    endloop
  endfacet
  facet normal 0 0 1
    outer loop
      vertex -147.92698669433594 250.23373413085938 46
      vertex -161.61917114257812 253.6774139404297 46
      vertex -151.04647827148438 210.06410217285156 46
    endloop
  endfacet
  facet normal 0 0 1
    outer loop
      vertex -147.92698669433594 250.23373413085938 46
      vertex -155.901611328125 253.35003662109375 46
      vertex -161.61917114257812 253.6774139404297 46
    endloop
  endfacet
  facet normal 0 0 1
    outer loop
      vertex -141.6677703857422 244.39178466796875 46
      vertex -138.0095672607422 236.6507568359375 46
      vertex -140.12527465820312 241.9725341796875 46
    endloop
  endfacet
  facet normal 0 0 1
    outer loop
      vertex -143.50234985351562 246.5977783203125 46
      vertex -145.599853515625 248.5554656982422 46
      vertex -147.92698669433594 250.23373413085938 46
    endloop
  endfacet
  facet normal 0 0 1
    outer loop
      vertex -143.50234985351562 246.5977783203125 46
      vertex -147.92698669433594 250.23373413085938 46
      vertex -151.04647827148438 210.06410217285156 46
    endloop
  endfacet
  facet normal 0 0 1
    outer loop
      vertex -143.50234985351562 246.5977783203125 46
      vertex -151.04647827148438 210.06410217285156 46
      vertex -138.0095672607422 236.6507568359375 46
    endloop
  endfacet
  facet normal 0 0 1
    outer loop
      vertex -143.50234985351562 246.5977783203125 46
      vertex -138.0095672607422 236.6507568359375 46
      vertex -141.6677703857422 244.39178466796875 46
    endloop
  endfacet
  facet normal 0 0 1
    outer loop
      vertex -52.927669525146484 -51.76566696166992 46
      vertex -48.66088104248047 -55.799537658691406 46
      vertex -50.663658142089844 -53.644439697265625 46
    endloop
  endfacet
  facet normal 0 0 1
    outer loop
      vertex -44.52946853637695 -63.54331970214844 46
      vertex -45.567955017089844 -60.79066848754883 46
      vertex -46.95280456542969 -58.19495391845703 46
    endloop
  endfacet
  facet normal 0 0 1
    outer loop
      vertex -43.55491638183594 -69.3336410522461 46
      vertex -43.85470199584961 -66.40692901611328 46
      vertex -44.52946853637695 -63.54331970214844 46
    endloop
  endfacet
  facet normal 0 0 1
    outer loop
      vertex -66.72679901123047 -47.426666259765625 46
      vertex -52.927669525146484 -51.76566696166992 46
      vertex -55.415096282958984 -50.19459915161133 46
    endloop
  endfacet
  facet normal 0 0 1
    outer loop
      vertex -66.72679901123047 -47.426666259765625 46
      vertex -55.415096282958984 -50.19459915161133 46
      vertex -58.08438491821289 -48.95748519897461 46
    endloop
  endfacet
  facet normal 0 0 1
    outer loop
      vertex -66.72679901123047 -47.426666259765625 46
      vertex -58.08438491821289 -48.95748519897461 46
      vertex -60.89094161987305 -48.074989318847656 46
    endloop
  endfacet
  facet normal 0 0 1
    outer loop
      vertex -66.72679901123047 -47.426666259765625 46
      vertex -60.89094161987305 -48.074989318847656 46
      vertex -63.78787612915039 -47.561859130859375 46
    endloop
  endfacet
  facet normal 0 0 1
    outer loop
      vertex -66.72679901123047 -47.426666259765625 46
      vertex -48.66088104248047 -55.799537658691406 46
      vertex -52.927669525146484 -51.76566696166992 46
    endloop
  endfacet
  facet normal 0 0 1
    outer loop
      vertex -44.093994140625 -75.18061065673828 46
      vertex -43.635128021240234 -72.27458190917969 46
      vertex -43.55491638183594 -69.3336410522461 46
    endloop
  endfacet
  facet normal 0 0 1
    outer loop
      vertex -44.923851013183594 -78.003173828125 46
      vertex -44.093994140625 -75.18061065673828 46
      vertex -43.55491638183594 -69.3336410522461 46
    endloop
  endfacet
  facet normal 0 0 1
    outer loop
      vertex -75.3059310913086 -49.27959060668945 46
      vertex -46.95280456542969 -58.19495391845703 46
      vertex -48.66088104248047 -55.799537658691406 46
    endloop
  endfacet
  facet normal 0 0 1
    outer loop
      vertex -75.3059310913086 -49.27959060668945 46
      vertex -66.72679901123047 -47.426666259765625 46
      vertex -69.65861511230469 -47.67166519165039 46
    endloop
  endfacet
  facet normal 0 0 1
    outer loop
      vertex -75.3059310913086 -49.27959060668945 46
      vertex -69.65861511230469 -47.67166519165039 46
      vertex -72.53433227539062 -48.29276657104492 46
    endloop
  endfacet
  facet normal 0 0 1
    outer loop
      vertex -75.3059310913086 -49.27959060668945 46
      vertex -44.52946853637695 -63.54331970214844 46
      vertex -46.95280456542969 -58.19495391845703 46
    endloop
  endfacet
  facet normal 0 0 1
    outer loop
      vertex -75.3059310913086 -49.27959060668945 46
      vertex -48.66088104248047 -55.799537658691406 46
      vertex -66.72679901123047 -47.426666259765625 46
    endloop
  endfacet
  facet normal 0 0 1
    outer loop
      vertex -47.635108947753906 -83.21150207519531 46
      vertex -46.11083221435547 -80.69512939453125 46
      vertex -44.923851013183594 -78.003173828125 46
    endloop
  endfacet
  facet normal 0 0 1
    outer loop
      vertex -80.3540267944336 -52.27864456176758 46
      vertex -75.3059310913086 -49.27959060668945 46
      vertex -77.92708587646484 -50.615657806396484 46
    endloop
  endfacet
  facet normal 0 0 1
    outer loop
      vertex -80.3540267944336 -52.27864456176758 46
      vertex -43.55491638183594 -69.3336410522461 46
      vertex -44.52946853637695 -63.54331970214844 46
    endloop
  endfacet
  facet normal 0 0 1
    outer loop
      vertex -80.3540267944336 -52.27864456176758 46
      vertex -44.52946853637695 -63.54331970214844 46
      vertex -75.3059310913086 -49.27959060668945 46
    endloop
  endfacet
  facet normal 0 0 1
    outer loop
      vertex -51.58848190307617 -87.552978515625 46
      vertex -49.47121810913086 -85.51025390625 46
      vertex -47.635108947753906 -83.21150207519531 46
    endloop
  endfacet
  facet normal 0 0 1
    outer loop
      vertex -51.58848190307617 -87.552978515625 46
      vertex -44.923851013183594 -78.003173828125 46
      vertex -43.55491638183594 -69.3336410522461 46
    endloop
  endfacet
  facet normal 0 0 1
    outer loop
      vertex -51.58848190307617 -87.552978515625 46
      vertex -47.635108947753906 -83.21150207519531 46
      vertex -44.923851013183594 -78.003173828125 46
    endloop
  endfacet
  facet normal 0 0 1
    outer loop
      vertex -84.46697998046875 -56.4692497253418 46
      vertex -80.3540267944336 -52.27864456176758 46
      vertex -82.54619598388672 -54.24076461791992 46
    endloop
  endfacet
  facet normal 0 0 1
    outer loop
      vertex -86.08428955078125 -58.92686080932617 46
      vertex -80.3540267944336 -52.27864456176758 46
      vertex -84.46697998046875 -56.4692497253418 46
    endloop
  endfacet
  facet normal 0 0 1
    outer loop
      vertex -88.3059310913086 -64.36210632324219 46
      vertex -86.08428955078125 -58.92686080932617 46
      vertex -87.37110900878906 -61.572547912597656 46
    endloop
  endfacet
  facet normal 0 0 1
    outer loop
      vertex -88.3059310913086 -64.36210632324219 46
      vertex -43.55491638183594 -69.3336410522461 46
      vertex -80.3540267944336 -52.27864456176758 46
    endloop
  endfacet
  facet normal 0 0 1
    outer loop
      vertex -88.3059310913086 -64.36210632324219 46
      vertex -80.3540267944336 -52.27864456176758 46
      vertex -86.08428955078125 -58.92686080932617 46
    endloop
  endfacet
  facet normal 0 0 1
    outer loop
      vertex -89.06327819824219 -70.18482208251953 46
      vertex -43.55491638183594 -69.3336410522461 46
      vertex -88.3059310913086 -64.36210632324219 46
    endloop
  endfacet
  facet normal 0 0 1
    outer loop
      vertex -89.06327819824219 -70.18482208251953 46
      vertex -88.3059310913086 -64.36210632324219 46
      vertex -88.8731460571289 -67.24893951416016 46
    endloop
  endfacet
  facet normal 0 0 1
    outer loop
      vertex -67.60234832763672 -92.90974426269531 46
      vertex -64.73323822021484 -92.89289855957031 46
      vertex -61.889034271240234 -92.5152587890625 46
    endloop
  endfacet
  facet normal 0 0 1
    outer loop
      vertex -67.60234832763672 -92.90974426269531 46
      vertex -61.889034271240234 -92.5152587890625 46
      vertex -59.11493682861328 -91.78282165527344 46
    endloop
  endfacet
  facet normal 0 0 1
    outer loop
      vertex -67.60234832763672 -92.90974426269531 46
      vertex -59.11493682861328 -91.78282165527344 46
      vertex -56.45501708984375 -90.70722198486328 46
    endloop
  endfacet
  facet normal 0 0 1
    outer loop
      vertex -67.60234832763672 -92.90974426269531 46
      vertex -56.45501708984375 -90.70722198486328 46
      vertex -53.9515380859375 -89.30555725097656 46
    endloop
  endfacet
  facet normal 0 0 1
    outer loop
      vertex -67.60234832763672 -92.90974426269531 46
      vertex -53.9515380859375 -89.30555725097656 46
      vertex -51.58848190307617 -87.552978515625 46
    endloop
  endfacet
  facet normal 0 0 1
    outer loop
      vertex -87.45301055908203 -78.59393310546875 46
      vertex -88.8824462890625 -73.04827880859375 46
      vertex -88.34283447265625 -75.86624145507812 46
    endloop
  endfacet
  facet normal 0 0 1
    outer loop
      vertex -86.22711944580078 -81.18801879882812 46
      vertex -89.06327819824219 -70.18482208251953 46
      vertex -88.8824462890625 -73.04827880859375 46
    endloop
  endfacet
  facet normal 0 0 1
    outer loop
      vertex -86.22711944580078 -81.18801879882812 46
      vertex -51.58848190307617 -87.552978515625 46
      vertex -43.55491638183594 -69.3336410522461 46
    endloop
  endfacet
  facet normal 0 0 1
    outer loop
      vertex -86.22711944580078 -81.18801879882812 46
      vertex -43.55491638183594 -69.3336410522461 46
      vertex -89.06327819824219 -70.18482208251953 46
    endloop
  endfacet
  facet normal 0 0 1
    outer loop
      vertex -86.22711944580078 -81.18801879882812 46
      vertex -88.8824462890625 -73.04827880859375 46
      vertex -87.45301055908203 -78.59393310546875 46
    endloop
  endfacet
  facet normal 0 0 1
    outer loop
      vertex -78.4254150390625 -89.44921875 46
      vertex -75.90565490722656 -90.82140350341797 46
      vertex -73.23329162597656 -91.8656997680664 46
    endloop
  endfacet
  facet normal 0 0 1
    outer loop
      vertex -84.68463134765625 -83.6072769165039 46
      vertex -67.60234832763672 -92.90974426269531 46
      vertex -51.58848190307617 -87.552978515625 46
    endloop
  endfacet
  facet normal 0 0 1
    outer loop
      vertex -84.68463134765625 -83.6072769165039 46
      vertex -51.58848190307617 -87.552978515625 46
      vertex -86.22711944580078 -81.18801879882812 46
    endloop
  endfacet
  facet normal 0 0 1
    outer loop
      vertex -80.7525405883789 -87.77095031738281 46
      vertex -73.23329162597656 -91.8656997680664 46
      vertex -70.4507827758789 -92.56551361083984 46
    endloop
  endfacet
  facet normal 0 0 1
    outer loop
      vertex -80.7525405883789 -87.77095031738281 46
      vertex -70.4507827758789 -92.56551361083984 46
      vertex -67.60234832763672 -92.90974426269531 46
    endloop
  endfacet
  facet normal 0 0 1
    outer loop
      vertex -80.7525405883789 -87.77095031738281 46
      vertex -78.4254150390625 -89.44921875 46
      vertex -73.23329162597656 -91.8656997680664 46
    endloop
  endfacet
  facet normal 0 0 1
    outer loop
      vertex -82.85005187988281 -85.81327056884766 46
      vertex -67.60234832763672 -92.90974426269531 46
      vertex -84.68463134765625 -83.6072769165039 46
    endloop
  endfacet
  facet normal 0 0 1
    outer loop
      vertex -82.85005187988281 -85.81327056884766 46
      vertex -80.7525405883789 -87.77095031738281 46
      vertex -67.60234832763672 -92.90974426269531 46
    endloop
  endfacet
  facet normal 0 0 1
    outer loop
      vertex -170.9373016357422 -109.02088928222656 46
      vertex -175.68873596191406 -105.571044921875 46
      vertex -173.4247283935547 -107.44982147216797 46
    endloop
  endfacet
  facet normal 0 0 1
    outer loop
      vertex -168.2680206298828 -110.25800323486328 46
      vertex -177.69151306152344 -103.41594696044922 46
      vertex -175.68873596191406 -105.571044921875 46
    endloop
  endfacet
  facet normal 0 0 1
    outer loop
      vertex -168.2680206298828 -110.25800323486328 46
      vertex -175.68873596191406 -105.571044921875 46
      vertex -170.9373016357422 -109.02088928222656 46
    endloop
  endfacet
  facet normal 0 0 1
    outer loop
      vertex -181.82293701171875 -95.67216491699219 46
      vertex -180.78443908691406 -98.42481994628906 46
      vertex -179.39959716796875 -101.0205307006836 46
    endloop
  endfacet
  facet normal 0 0 1
    outer loop
      vertex -181.82293701171875 -95.67216491699219 46
      vertex -179.39959716796875 -101.0205307006836 46
      vertex -177.69151306152344 -103.41594696044922 46
    endloop
  endfacet
  facet normal 0 0 1
    outer loop
      vertex -181.82293701171875 -95.67216491699219 46
      vertex -177.69151306152344 -103.41594696044922 46
      vertex -168.2680206298828 -110.25800323486328 46
    endloop
  endfacet
  facet normal 0 0 1
    outer loop
      vertex -162.5645294189453 -111.65362548828125 46
      vertex -168.2680206298828 -110.25800323486328 46
      vertex -165.46145629882812 -111.14049530029297 46
    endloop
  endfacet
  facet normal 0 0 1
    outer loop
      vertex -182.71726989746094 -86.94090270996094 46
      vertex -182.7974853515625 -89.88184356689453 46
      vertex -182.49769592285156 -92.80855560302734 46
    endloop
  endfacet
  facet normal 0 0 1
    outer loop
      vertex -181.4285430908203 -81.21231079101562 46
      vertex -182.25840759277344 -84.03487396240234 46
      vertex -182.71726989746094 -86.94090270996094 46
    endloop
  endfacet
  facet normal 0 0 1
    outer loop
      vertex -181.4285430908203 -81.21231079101562 46
      vertex -182.49769592285156 -92.80855560302734 46
      vertex -181.82293701171875 -95.67216491699219 46
    endloop
  endfacet
  facet normal 0 0 1
    outer loop
      vertex -181.4285430908203 -81.21231079101562 46
      vertex -182.71726989746094 -86.94090270996094 46
      vertex -182.49769592285156 -92.80855560302734 46
    endloop
  endfacet
  facet normal 0 0 1
    outer loop
      vertex -178.71728515625 -76.00398254394531 46
      vertex -180.24156188964844 -78.52035522460938 46
      vertex -181.4285430908203 -81.21231079101562 46
    endloop
  endfacet
  facet normal 0 0 1
    outer loop
      vertex -178.71728515625 -76.00398254394531 46
      vertex -168.2680206298828 -110.25800323486328 46
      vertex -162.5645294189453 -111.65362548828125 46
    endloop
  endfacet
  facet normal 0 0 1
    outer loop
      vertex -178.71728515625 -76.00398254394531 46
      vertex -181.82293701171875 -95.67216491699219 46
      vertex -168.2680206298828 -110.25800323486328 46
    endloop
  endfacet
  facet normal 0 0 1
    outer loop
      vertex -178.71728515625 -76.00398254394531 46
      vertex -181.4285430908203 -81.21231079101562 46
      vertex -181.82293701171875 -95.67216491699219 46
    endloop
  endfacet
  facet normal 0 0 1
    outer loop
      vertex -143.8061981201172 -104.97471618652344 46
      vertex -148.42530822753906 -108.5998306274414 46
      vertex -145.99838256835938 -106.93684387207031 46
    endloop
  endfacet
  facet normal 0 0 1
    outer loop
      vertex -174.763916015625 -71.66250610351562 46
      vertex -176.8811798095703 -73.70523071289062 46
      vertex -178.71728515625 -76.00398254394531 46
    endloop
  endfacet
  facet normal 0 0 1
    outer loop
      vertex -174.763916015625 -71.66250610351562 46
      vertex -178.71728515625 -76.00398254394531 46
      vertex -162.5645294189453 -111.65362548828125 46
    endloop
  endfacet
  facet normal 0 0 1
    outer loop
      vertex -141.8854217529297 -102.7462387084961 46
      vertex -148.42530822753906 -108.5998306274414 46
      vertex -143.8061981201172 -104.97471618652344 46
    endloop
  endfacet
  facet normal 0 0 1
    outer loop
      vertex -141.8854217529297 -102.7462387084961 46
      vertex -151.04647827148438 -109.9358901977539 46
      vertex -148.42530822753906 -108.5998306274414 46
    endloop
  endfacet
  facet normal 0 0 1
    outer loop
      vertex -172.40086364746094 -69.90992736816406 46
      vertex -162.5645294189453 -111.65362548828125 46
      vertex -159.62559509277344 -111.788818359375 46
    endloop
  endfacet
  facet normal 0 0 1
    outer loop
      vertex -172.40086364746094 -69.90992736816406 46
      vertex -159.62559509277344 -111.788818359375 46
      vertex -156.69378662109375 -111.5438232421875 46
    endloop
  endfacet
  facet normal 0 0 1
    outer loop
      vertex -172.40086364746094 -69.90992736816406 46
      vertex -156.69378662109375 -111.5438232421875 46
      vertex -153.8180694580078 -110.92272186279297 46
    endloop
  endfacet
  facet normal 0 0 1
    outer loop
      vertex -172.40086364746094 -69.90992736816406 46
      vertex -174.763916015625 -71.66250610351562 46
      vertex -162.5645294189453 -111.65362548828125 46
    endloop
  endfacet
  facet normal 0 0 1
    outer loop
      vertex -164.46336364746094 -66.70022583007812 46
      vertex -172.40086364746094 -69.90992736816406 46
      vertex -153.8180694580078 -110.92272186279297 46
    endloop
  endfacet
  facet normal 0 0 1
    outer loop
      vertex -164.46336364746094 -66.70022583007812 46
      vertex -167.23745727539062 -67.43266296386719 46
      vertex -169.8973846435547 -68.50826263427734 46
    endloop
  endfacet
  facet normal 0 0 1
    outer loop
      vertex -164.46336364746094 -66.70022583007812 46
      vertex -169.8973846435547 -68.50826263427734 46
      vertex -172.40086364746094 -69.90992736816406 46
    endloop
  endfacet
  facet normal 0 0 1
    outer loop
      vertex -158.75006103515625 -66.30574798583984 46
      vertex -161.61917114257812 -66.32258605957031 46
      vertex -164.46336364746094 -66.70022583007812 46
    endloop
  endfacet
  facet normal 0 0 1
    outer loop
      vertex -137.46995544433594 -86.16720581054688 46
      vertex -141.8854217529297 -102.7462387084961 46
      vertex -140.2681121826172 -100.28862762451172 46
    endloop
  endfacet
  facet normal 0 0 1
    outer loop
      vertex -137.46995544433594 -86.16720581054688 46
      vertex -140.2681121826172 -100.28862762451172 46
      vertex -138.98129272460938 -97.64293670654297 46
    endloop
  endfacet
  facet normal 0 0 1
    outer loop
      vertex -137.46995544433594 -86.16720581054688 46
      vertex -138.98129272460938 -97.64293670654297 46
      vertex -138.0464630126953 -94.85337829589844 46
    endloop
  endfacet
  facet normal 0 0 1
    outer loop
      vertex -137.46995544433594 -86.16720581054688 46
      vertex -138.0464630126953 -94.85337829589844 46
      vertex -137.479248046875 -91.96654510498047 46
    endloop
  endfacet
  facet normal 0 0 1
    outer loop
      vertex -137.46995544433594 -86.16720581054688 46
      vertex -137.479248046875 -91.96654510498047 46
      vertex -137.28912353515625 -89.0306625366211 46
    endloop
  endfacet
  facet normal 0 0 1
    outer loop
      vertex -155.901611328125 -66.64997100830078 46
      vertex -158.75006103515625 -66.30574798583984 46
      vertex -164.46336364746094 -66.70022583007812 46
    endloop
  endfacet
  facet normal 0 0 1
    outer loop
      vertex -155.901611328125 -66.64997100830078 46
      vertex -164.46336364746094 -66.70022583007812 46
      vertex -153.8180694580078 -110.92272186279297 46
    endloop
  endfacet
  facet normal 0 0 1
    outer loop
      vertex -155.901611328125 -66.64997100830078 46
      vertex -153.8180694580078 -110.92272186279297 46
      vertex -151.04647827148438 -109.9358901977539 46
    endloop
  endfacet
  facet normal 0 0 1
    outer loop
      vertex -150.44674682617188 -68.39408874511719 46
      vertex -153.11911010742188 -67.34978485107422 46
      vertex -155.901611328125 -66.64997100830078 46
    endloop
  endfacet
  facet normal 0 0 1
    outer loop
      vertex -140.12527465820312 -78.0274658203125 46
      vertex -137.46995544433594 -86.16720581054688 46
      vertex -138.0095672607422 -83.3492431640625 46
    endloop
  endfacet
  facet normal 0 0 1
    outer loop
      vertex -140.12527465820312 -78.0274658203125 46
      vertex -138.0095672607422 -83.3492431640625 46
      vertex -138.89938354492188 -80.62155151367188 46
    endloop
  endfacet
  facet normal 0 0 1
    outer loop
      vertex -147.92698669433594 -69.76626586914062 46
      vertex -155.901611328125 -66.64997100830078 46
      vertex -151.04647827148438 -109.9358901977539 46
    endloop
  endfacet
  facet normal 0 0 1
    outer loop
      vertex -147.92698669433594 -69.76626586914062 46
      vertex -150.44674682617188 -68.39408874511719 46
      vertex -155.901611328125 -66.64997100830078 46
    endloop
  endfacet
  facet normal 0 0 1
    outer loop
      vertex -147.92698669433594 -69.76626586914062 46
      vertex -151.04647827148438 -109.9358901977539 46
      vertex -141.8854217529297 -102.7462387084961 46
    endloop
  endfacet
  facet normal 0 0 1
    outer loop
      vertex -143.50234985351562 -73.40221405029297 46
      vertex -140.12527465820312 -78.0274658203125 46
      vertex -141.6677703857422 -75.60820770263672 46
    endloop
  endfacet
  facet normal 0 0 1
    outer loop
      vertex -143.50234985351562 -73.40221405029297 46
      vertex -145.599853515625 -71.44453430175781 46
      vertex -147.92698669433594 -69.76626586914062 46
    endloop
  endfacet
  facet normal 0 0 1
    outer loop
      vertex -143.50234985351562 -73.40221405029297 46
      vertex -137.46995544433594 -86.16720581054688 46
      vertex -140.12527465820312 -78.0274658203125 46
    endloop
  endfacet
  facet normal 0 0 1
    outer loop
      vertex -143.50234985351562 -73.40221405029297 46
      vertex -141.8854217529297 -102.7462387084961 46
      vertex -137.46995544433594 -86.16720581054688 46
    endloop
  endfacet
  facet normal 0 0 1
    outer loop
      vertex -143.50234985351562 -73.40221405029297 46
      vertex -147.92698669433594 -69.76626586914062 46
      vertex -141.8854217529297 -102.7462387084961 46
    endloop
  endfacet
endsolid SelectedFaces
